<svg width="116.622" height="90.882" viewBox="0 0 116.622 90.882" xmlns="http://www.w3.org/2000/svg"><g id="svgGroup" stroke-linecap="round" fill-rule="evenodd" font-size="9pt" stroke="#000" stroke-width="0.25mm" fill="#000" style="stroke:#000;stroke-width:0.25mm;fill:#000"><path d="M 45.243 19.206 L 45.243 20.79 A 228.397 228.397 0 0 0 44.188 20.682 Q 42.982 20.561 41.289 20.4 A 1040.011 1040.011 0 0 0 39.65 20.246 Q 35.937 19.899 31.482 19.652 Q 27.027 19.404 22.77 19.404 A 27.706 27.706 0 0 0 17.895 19.806 Q 15.257 20.278 13.143 21.305 A 14.02 14.02 0 0 0 10.494 22.968 A 15.511 15.511 0 0 0 6.72 27.491 Q 5.627 29.415 4.85 31.82 A 31.489 31.489 0 0 0 4.208 34.106 A 55.034 55.034 0 0 0 3.165 39.856 Q 2.771 42.861 2.573 46.361 A 133.644 133.644 0 0 0 2.376 53.856 A 164.244 164.244 0 0 0 2.512 60.761 Q 2.744 66.236 3.366 70.439 Q 4.356 77.121 6.732 81.131 Q 9.108 85.14 13.316 86.873 A 20.546 20.546 0 0 0 17.118 87.994 Q 19.03 88.376 21.263 88.519 A 43.709 43.709 0 0 0 24.057 88.605 A 38.157 38.157 0 0 0 30.691 87.999 A 48.251 48.251 0 0 0 35.195 86.972 Q 40.694 85.447 44.942 83.706 A 60.989 60.989 0 0 0 45.54 83.457 L 45.54 56.232 L 24.354 56.232 L 24.354 54.846 A 37.702 37.702 0 0 1 25.788 54.637 Q 27.064 54.475 28.611 54.351 Q 31.086 54.153 34.007 54.005 A 115.918 115.918 0 0 1 38.186 53.871 A 136.722 136.722 0 0 1 40.194 53.856 A 87.554 87.554 0 0 1 43.892 53.932 A 78.852 78.852 0 0 1 44.402 53.955 Q 45.955 54.031 47.19 54.223 A 17.071 17.071 0 0 1 47.916 54.351 L 47.916 90.288 L 46.332 90.288 L 45.738 85.041 A 68.163 68.163 0 0 1 42.457 86.452 Q 39.526 87.628 35.937 88.803 Q 30.195 90.684 24.057 90.783 A 49.493 49.493 0 0 1 23.36 90.788 Q 18.206 90.788 14.374 89.686 A 20.271 20.271 0 0 1 12.375 89.001 Q 7.722 87.12 5 82.814 Q 2.277 78.507 1.139 71.33 A 81.013 81.013 0 0 1 0.445 65.48 Q 0.174 62.273 0.068 58.584 A 171.906 171.906 0 0 1 0 53.658 Q 0 45.837 0.755 39.789 A 69.755 69.755 0 0 1 1.139 37.125 A 43.874 43.874 0 0 1 2.201 32.283 Q 2.897 29.829 3.842 27.799 A 22.448 22.448 0 0 1 4.901 25.79 A 16.447 16.447 0 0 1 9.41 20.788 A 15.855 15.855 0 0 1 11.93 19.305 Q 16.335 17.226 22.77 17.226 A 84.011 84.011 0 0 1 25.097 17.261 Q 27.182 17.319 29.75 17.474 Q 33.858 17.721 37.967 18.167 A 118.066 118.066 0 0 1 41.382 18.585 Q 43.461 18.872 45.243 19.206 Z M 84.599 90.645 A 60.376 60.376 0 0 0 90.09 90.882 A 69.245 69.245 0 0 0 91.948 90.858 Q 94.683 90.784 97.1 90.491 A 38.365 38.365 0 0 0 101.772 89.645 Q 106.722 88.407 110.039 84.744 A 15.941 15.941 0 0 0 112.12 81.799 Q 113.917 78.58 114.989 73.805 A 42.798 42.798 0 0 0 115.025 73.643 Q 116.117 68.686 116.463 61.577 A 145.286 145.286 0 0 0 116.622 54.549 Q 116.622 46.623 115.94 40.722 A 59.43 59.43 0 0 0 115.038 35.096 A 40.564 40.564 0 0 0 114.088 31.457 Q 113.402 29.274 112.523 27.494 A 17.772 17.772 0 0 0 110.187 23.859 Q 106.92 19.998 101.921 18.612 A 31.282 31.282 0 0 0 100.437 18.24 Q 95.934 17.226 90.09 17.226 A 60.179 60.179 0 0 0 89.254 17.232 Q 83.237 17.315 78.606 18.612 Q 73.656 19.998 70.29 23.859 A 17.033 17.033 0 0 0 68.417 26.501 Q 67.378 28.287 66.562 30.537 A 38.459 38.459 0 0 0 65.241 35.096 Q 64.084 40.166 63.723 47.46 A 143.592 143.592 0 0 0 63.558 54.549 A 143.865 143.865 0 0 0 63.734 61.904 Q 64.094 68.916 65.192 73.805 A 38.51 38.51 0 0 0 66.182 77.428 Q 66.896 79.592 67.807 81.331 A 16.381 16.381 0 0 0 70.142 84.744 Q 73.458 88.407 78.458 89.645 Q 81.27 90.341 84.599 90.645 Z M 90.09 88.704 Q 96.426 88.704 101.03 87.516 Q 105.633 86.328 108.554 82.814 A 15.891 15.891 0 0 0 110.601 79.569 Q 111.397 77.927 112.012 75.901 A 37.49 37.49 0 0 0 112.86 72.518 A 55.676 55.676 0 0 0 113.591 67.849 Q 114.246 62.24 114.246 54.549 A 159.005 159.005 0 0 0 114.106 47.65 Q 113.818 41.042 112.939 36.391 A 45.515 45.515 0 0 0 112.811 35.739 Q 111.375 28.71 108.455 25.196 Q 105.534 21.681 100.98 20.543 Q 96.426 19.404 90.09 19.404 Q 84.249 19.404 79.745 20.543 Q 75.24 21.681 72.171 25.196 A 15.845 15.845 0 0 0 70.078 28.326 Q 68.508 31.346 67.518 35.739 A 52.481 52.481 0 0 0 66.683 40.596 Q 65.984 46.061 65.937 53.483 A 170.443 170.443 0 0 0 65.934 54.549 A 160.679 160.679 0 0 0 66.06 61.111 Q 66.327 67.638 67.165 72.215 A 46.58 46.58 0 0 0 67.221 72.518 A 35.994 35.994 0 0 0 68.18 76.437 Q 69.405 80.397 71.379 82.814 Q 74.25 86.328 78.854 87.516 A 33.743 33.743 0 0 0 82.929 88.285 Q 86.152 88.704 90.09 88.704 Z M 102.366 8.514 L 101.277 8.514 A 1.71 1.71 0 0 1 100.807 8.455 Q 100.089 8.25 100.089 7.326 L 100.089 1.188 A 1.71 1.71 0 0 1 100.148 0.718 Q 100.354 0 101.277 0 L 102.366 0 Q 102.807 0 103.084 0.191 A 0.896 0.896 0 0 1 103.257 0.347 A 1.228 1.228 0 0 1 103.551 1.096 A 1.583 1.583 0 0 1 103.554 1.188 L 103.554 7.326 A 1.71 1.71 0 0 1 103.495 7.796 Q 103.29 8.514 102.366 8.514 Z M 77.22 8.514 L 76.131 8.514 A 1.71 1.71 0 0 1 75.661 8.455 Q 74.943 8.25 74.943 7.326 L 74.943 1.188 A 1.71 1.71 0 0 1 75.002 0.718 Q 75.208 0 76.131 0 L 77.22 0 Q 77.661 0 77.938 0.191 A 0.896 0.896 0 0 1 78.111 0.347 A 1.228 1.228 0 0 1 78.405 1.096 A 1.583 1.583 0 0 1 78.408 1.188 L 78.408 7.326 A 1.71 1.71 0 0 1 78.349 7.796 Q 78.144 8.514 77.22 8.514 Z" vector-effect="non-scaling-stroke"/></g></svg>