<svg width="432" height="92" viewBox="0 0 432 92" fill="none" xmlns="http://www.w3.org/2000/svg">
<path d="M131.721 34.6023C130.536 33.9529 129.324 33.4165 128.082 32.9929C126.869 32.5694 125.727 32.3576 124.655 32.3576C123.329 32.3576 122.285 32.6259 121.524 33.1623C120.762 33.6988 120.381 34.5035 120.381 35.5765C120.381 36.3106 120.663 36.9741 121.227 37.5671C121.82 38.1318 122.567 38.64 123.47 39.0918C124.401 39.5435 125.36 39.953 126.347 40.32C127.25 40.6588 128.139 41.0682 129.013 41.5482C129.916 42 130.72 42.5788 131.425 43.2847C132.13 43.9623 132.694 44.8235 133.118 45.8682C133.541 46.8847 133.752 48.1412 133.752 49.6376C133.752 51.2188 133.343 52.6871 132.525 54.0423C131.707 55.3976 130.508 56.4988 128.928 57.3459C127.349 58.1649 125.402 58.5741 123.089 58.5741C121.904 58.5741 120.692 58.4613 119.45 58.2353C118.238 57.9812 117.038 57.6143 115.854 57.1341C114.669 56.6259 113.526 55.9906 112.426 55.2282L115.134 50.4423C115.868 50.9788 116.658 51.4588 117.504 51.8823C118.378 52.2777 119.253 52.5882 120.127 52.8141C121.002 53.0402 121.806 53.1529 122.539 53.1529C123.273 53.1529 124.006 53.0539 124.739 52.8565C125.501 52.6306 126.122 52.2635 126.601 51.7553C127.109 51.2471 127.363 50.5412 127.363 49.6376C127.363 49.0165 127.151 48.4518 126.728 47.9435C126.333 47.4353 125.783 46.9694 125.078 46.5459C124.401 46.1223 123.654 45.7553 122.835 45.4447C121.876 45.0777 120.889 44.6541 119.873 44.1741C118.858 43.6941 117.899 43.1153 116.996 42.4376C116.122 41.7318 115.403 40.8706 114.838 39.8541C114.302 38.8094 114.034 37.5388 114.034 36.0423C114.034 34.2353 114.429 32.6682 115.219 31.3412C116.037 30.0141 117.18 28.9694 118.646 28.2071C120.113 27.4165 121.806 26.9788 123.724 26.8941C126.235 26.8941 128.266 27.1906 129.817 27.7835C131.397 28.3765 132.807 29.0823 134.048 29.9012L131.721 34.6023ZM169.381 27.0635H190.368V32.9929H182.794V58.2353H176.658V32.9929H169.381V27.0635ZM233.525 46.7153C233.525 47.7035 233.821 48.6494 234.413 49.5529C235.006 50.4565 235.781 51.1906 236.741 51.7553C237.728 52.32 238.8 52.6023 239.956 52.6023C241.226 52.6023 242.354 52.32 243.341 51.7553C244.328 51.1906 245.104 50.4565 245.669 49.5529C246.261 48.6494 246.557 47.7035 246.557 46.7153V27.0635H252.608V46.8423C252.608 49.1294 252.044 51.1623 250.915 52.9412C249.787 54.6919 248.264 56.0753 246.346 57.0918C244.427 58.0802 242.297 58.5741 239.956 58.5741C237.643 58.5741 235.527 58.0802 233.609 57.0918C231.719 56.0753 230.21 54.6919 229.082 52.9412C227.953 51.1623 227.389 49.1294 227.389 46.8423V27.0635H233.525V46.7153ZM291.741 58.2353V27.0635H301.05C304.182 27.0635 306.847 27.5294 309.048 28.4612C311.248 29.3929 313.011 30.6353 314.337 32.1882C315.691 33.7412 316.678 35.4776 317.299 37.3976C317.92 39.3177 318.23 41.2518 318.23 43.2C318.23 45.5153 317.806 47.6047 316.96 49.4682C316.142 51.3035 315.014 52.8847 313.575 54.2118C312.136 55.5104 310.472 56.5131 308.582 57.2188C306.692 57.8965 304.689 58.2353 302.574 58.2353H291.741ZM297.877 52.3059H301.516C303.068 52.3059 304.478 52.1082 305.747 51.7129C307.017 51.2894 308.103 50.6823 309.005 49.8918C309.936 49.1012 310.642 48.1129 311.121 46.9271C311.629 45.713 311.883 44.3294 311.883 42.7765C311.883 40.7435 311.544 39.0918 310.867 37.8212C310.219 36.5224 309.4 35.52 308.413 34.8141C307.454 34.1082 306.466 33.6282 305.451 33.3741C304.435 33.0918 303.575 32.9506 302.87 32.9506H297.877V52.3059ZM356.12 27.0635H362.256V58.2353H356.12V27.0635ZM400.125 42.6918C400.125 40.5459 400.534 38.513 401.352 36.5929C402.17 34.6729 403.298 32.9788 404.737 31.5106C406.204 30.0141 407.896 28.8423 409.814 27.9953C411.733 27.1482 413.792 26.7247 415.992 26.7247C418.164 26.7247 420.209 27.1482 422.128 27.9953C424.046 28.8423 425.738 30.0141 427.205 31.5106C428.7 32.9788 429.857 34.6729 430.675 36.5929C431.521 38.513 431.944 40.5459 431.944 42.6918C431.944 44.8941 431.521 46.9553 430.675 48.8753C429.857 50.7953 428.7 52.4894 427.205 53.9576C425.738 55.3976 424.046 56.5269 422.128 57.3459C420.209 58.1649 418.164 58.5741 415.992 58.5741C413.792 58.5741 411.733 58.1649 409.814 57.3459C407.896 56.5269 406.204 55.3976 404.737 53.9576C403.298 52.4894 402.17 50.7953 401.352 48.8753C400.534 46.9553 400.125 44.8941 400.125 42.6918ZM406.472 42.6918C406.472 44.0753 406.711 45.3741 407.191 46.5882C407.699 47.7741 408.39 48.8329 409.264 49.7647C410.167 50.6682 411.196 51.3741 412.353 51.8823C413.538 52.3906 414.822 52.6447 416.204 52.6447C417.53 52.6447 418.757 52.3906 419.885 51.8823C421.042 51.3741 422.043 50.6682 422.889 49.7647C423.736 48.8329 424.398 47.7741 424.878 46.5882C425.358 45.3741 425.597 44.0753 425.597 42.6918C425.597 41.28 425.343 39.967 424.836 38.7529C424.356 37.5388 423.679 36.48 422.805 35.5765C421.958 34.6447 420.957 33.9247 419.8 33.4165C418.644 32.9082 417.388 32.6541 416.034 32.6541C414.68 32.6541 413.425 32.9082 412.269 33.4165C411.112 33.9247 410.096 34.6447 409.222 35.5765C408.348 36.48 407.671 37.5388 407.191 38.7529C406.711 39.967 406.472 41.28 406.472 42.6918Z" fill="white"/>
<path d="M15.9703 37.2845C16.7677 38.195 17.5918 39.1056 18.4382 40.0135L20.1102 35.4435C20.5213 34.3202 21.77 33.7409 22.8993 34.1497C24.0285 34.5586 24.6109 35.8008 24.1998 36.9243L21.7968 43.4922C26.4903 48.195 31.6316 52.7429 36.5615 56.7795C37.4894 57.5393 37.6225 58.9036 36.8587 59.8267C36.0949 60.7498 34.7237 60.882 33.7958 60.1224C29.289 56.4319 24.5763 52.2959 20.1565 47.9755L9.3151 77.6074C8.90407 78.7309 7.65537 79.3101 6.52608 78.9012C5.39679 78.4922 4.81451 77.2501 5.22554 76.1268L16.7722 44.5673C15.3576 43.0973 13.9904 41.6145 12.6889 40.1284C6.54804 33.1164 1.60099 25.7322 0.386878 19.1319C-0.234589 15.7533 0.0982598 12.4428 1.88919 9.52996C3.66691 6.63862 6.707 4.42315 10.9447 2.86889C19.3274 -0.205616 33.1216 -0.958307 54.0078 1.37039C55.202 1.50355 56.0617 2.57464 55.9279 3.76273C55.7941 4.95083 54.7173 5.80602 53.5231 5.67287C32.7477 3.35651 19.8217 4.22737 12.4502 6.93103C8.81072 8.26586 6.71516 9.97815 5.60179 11.789C4.50166 13.5783 4.18804 15.7444 4.6678 18.3526C5.65613 23.7255 9.90231 30.3557 15.9703 37.2845Z" fill="white"/>
<path d="M32.5285 20.9654C31.4907 21.5681 31.1406 22.8938 31.7464 23.9261C32.3524 24.9587 33.6848 25.307 34.7228 24.7042L56.6465 11.971C57.6843 11.3682 58.0345 10.0426 57.4286 9.01016C56.8226 7.9777 55.4902 7.62939 54.4522 8.23215L32.5285 20.9654Z" fill="white"/>
<path d="M11.7866 79.3058C10.7458 79.9036 10.3892 81.2275 10.9901 82.263C11.591 83.2983 12.9218 83.6531 13.9626 83.0553L35.948 70.4278C36.9889 69.83 37.3454 68.5061 36.7446 67.4708C36.1437 66.4354 34.8129 66.0807 33.772 66.6784L11.7866 79.3058Z" fill="white"/>
<path d="M62.8001 15.317C63.2111 14.1936 62.6289 12.9514 61.4995 12.5425C60.3702 12.1336 59.1215 12.7128 58.7104 13.8363L47.761 43.7639C43.3675 39.4752 38.6882 35.3704 34.2121 31.7052C33.2843 30.9456 31.9128 31.0778 31.1491 32.0009C30.3855 32.9239 30.5184 34.2882 31.4463 35.048C36.3448 39.0589 41.452 43.5746 46.1212 48.2455L43.8259 54.5194C43.4148 55.6429 43.9971 56.885 45.1264 57.294C46.2556 57.7029 47.5042 57.1235 47.9153 56.0002L49.4815 51.7195C50.3588 52.6588 51.2125 53.601 52.0376 54.543C58.1055 61.4719 62.3518 68.102 63.3401 73.475C63.8199 76.0831 63.5062 78.2493 62.406 80.0386C61.2926 81.8495 59.1971 83.5618 55.5578 84.8965C48.186 87.6002 35.2602 88.471 14.4848 86.1548C13.2905 86.0216 12.2139 86.8767 12.08 88.0649C11.9462 89.253 12.8058 90.324 14.0001 90.4571C34.8861 92.786 48.6804 92.0332 57.0632 88.9586C61.3008 87.4043 64.341 85.1889 66.1186 82.2976C67.9097 79.3848 68.2424 76.0743 67.621 72.6957C66.407 66.0953 61.4598 58.7112 55.319 51.6991C53.9903 50.1819 52.593 48.668 51.1467 47.168L62.8001 15.317Z" fill="white"/>
<path d="M30.1013 27.6C30.1013 29.9911 28.1529 31.9294 25.7493 31.9294C23.3458 31.9294 21.3973 29.9911 21.3973 27.6C21.3973 25.2089 23.3458 23.2706 25.7493 23.2706C28.1529 23.2706 30.1013 25.2089 30.1013 27.6Z" fill="white"/>
<path d="M5.07728 90.1961C7.48082 90.1961 9.42929 88.2577 9.42929 85.8666C9.42929 83.4755 7.48082 81.5372 5.07728 81.5372C2.67375 81.5372 0.725281 83.4755 0.725281 85.8666C0.725281 88.2577 2.67375 90.1961 5.07728 90.1961Z" fill="white"/>
<path d="M67.2747 5.77256C67.2747 8.16362 65.3263 10.102 62.9227 10.102C60.5191 10.102 58.5707 8.16362 58.5707 5.77256C58.5707 3.3815 60.5191 1.44315 62.9227 1.44315C65.3263 1.44315 67.2747 3.3815 67.2747 5.77256Z" fill="white"/>
<path d="M42.432 67.8275C44.8356 67.8275 46.784 65.8892 46.784 63.4981C46.784 61.107 44.8356 59.1686 42.432 59.1686C40.0284 59.1686 38.08 61.107 38.08 63.4981C38.08 65.8892 40.0284 67.8275 42.432 67.8275Z" fill="white"/>
</svg>
