<svg width="375" height="510" viewBox="0 0 375 510" fill="#fff" xmlns="http://www.w3.org/2000/svg">
<path d="M88.0714 206.686C92.4687 211.733 97.0138 216.781 101.681 221.814L110.902 196.48C113.169 190.253 120.055 187.042 126.283 189.308C132.51 191.575 135.722 198.461 133.455 204.689L120.203 241.098C146.086 267.168 174.439 292.379 201.626 314.756C206.743 318.968 207.477 326.531 203.265 331.648C199.053 336.765 191.491 337.498 186.374 333.287C161.52 312.829 135.531 289.901 111.157 265.951L51.37 430.215C49.1033 436.443 42.2171 439.654 35.9894 437.387C29.7617 435.12 26.5506 428.234 28.8173 422.007L92.4936 247.058C84.6929 238.909 77.1527 230.689 69.9756 222.451C36.1105 183.58 8.82895 142.646 2.1335 106.057C-1.29371 87.3279 0.541855 68.9765 10.4183 52.8291C20.2219 36.801 36.9871 24.5196 60.3568 15.9036C106.585 -1.13986 182.656 -5.31239 297.837 7.5967C304.423 8.33486 309.164 14.2724 308.426 20.8586C307.688 27.4448 301.75 32.1855 295.164 31.4474C180.594 18.6067 109.311 23.4343 68.6589 38.422C48.5885 45.8216 37.0321 55.3136 30.8922 65.3519C24.8253 75.2708 23.0958 87.2787 25.7415 101.737C31.1919 131.522 54.6083 168.276 88.0714 206.686Z" fill="none" stroke="black"/>
<path d="M179.385 116.221C173.662 119.562 171.731 126.911 175.072 132.634C178.414 138.358 185.762 140.289 191.486 136.947L312.389 66.361C318.112 63.0195 320.043 55.671 316.702 49.9476C313.36 44.2242 306.012 42.2933 300.288 45.6347L179.385 116.221Z" fill="none" stroke="black"/>
<path d="M64.9998 439.63C59.2603 442.944 57.2938 450.283 60.6075 456.023C63.9212 461.762 71.2603 463.729 76.9998 460.415L198.243 390.415C203.983 387.101 205.949 379.762 202.636 374.023C199.322 368.283 191.983 366.317 186.243 369.63L64.9998 439.63Z" fill="none" stroke="black"/>
<path d="M346.324 84.9095C348.591 78.6818 345.38 71.7957 339.152 69.529C332.924 67.2622 326.038 70.4733 323.771 76.701L263.388 242.604C239.159 218.83 213.354 196.075 188.67 175.757C183.553 171.546 175.99 172.279 171.778 177.396C167.567 182.513 168.3 190.076 173.417 194.288C200.431 216.522 228.596 241.555 254.345 267.448L241.687 302.227C239.42 308.455 242.631 315.341 248.859 317.608C255.086 319.875 261.972 316.663 264.239 310.436L272.876 286.706C277.714 291.913 282.422 297.136 286.972 302.358C320.435 340.768 343.852 377.522 349.302 407.307C351.948 421.765 350.218 433.773 344.151 443.692C338.011 453.731 326.455 463.223 306.385 470.622C265.732 485.61 194.45 490.437 79.8797 477.597C73.2936 476.859 67.356 481.599 66.6179 488.186C65.8797 494.772 70.6205 500.709 77.2066 501.447C192.387 514.357 268.458 510.184 314.687 493.14C338.056 484.524 354.822 472.243 364.625 456.215C374.502 440.068 376.337 421.716 372.91 402.987C366.215 366.398 338.933 325.464 305.068 286.593C297.741 278.182 290.035 269.79 282.059 261.475L346.324 84.9095Z" fill="none" stroke="black"/>
<path d="M166 153C166 166.255 155.255 177 142 177C128.745 177 118 166.255 118 153C118 139.745 128.745 129 142 129C155.255 129 166 139.745 166 153Z" fill="none" stroke="black"/>
<path d="M27.9998 500C41.2546 500 51.9998 489.255 51.9998 476C51.9998 462.745 41.2546 452 27.9998 452C14.745 452 3.99978 462.745 3.99978 476C3.99978 489.255 14.745 500 27.9998 500Z" fill="none" stroke="black"/>
<path d="M371 32.0001C371 45.2549 360.255 56.0001 347 56.0001C333.745 56.0001 323 45.2549 323 32.0001C323 18.7453 333.745 8.00009 347 8.00009C360.255 8.00009 371 18.7453 371 32.0001Z" fill="none" stroke="black"/>
<path d="M234 376C247.255 376 258 365.255 258 352C258 338.745 247.255 328 234 328C220.745 328 210 338.745 210 352C210 365.255 220.745 376 234 376Z" fill="none" stroke="black"/>
</svg>
