<svg xmlns="http://www.w3.org/2000/svg" width="150" height="140" viewBox="0 0 150 140" fill="none">
<path fill-rule="evenodd" clip-rule="evenodd" d="M76.058 79.499C75.437 79.489 74.821 79.484 74.202 79.484C71.384 79.484 68.59 79.592 65.816 79.784C68.931 74.987 71.739 69.956 74.226 64.731C76.714 69.956 79.536 74.98 82.653 79.781C80.469 79.629 78.271 79.532 76.058 79.499V79.499ZM74.998 0C79.604 0 84.105 0.430006 88.481 1.21201C88.262 3.63401 88.101 6.07201 88.065 8.54201C87.472 48.276 111.063 82.906 145.408 98.917C142.242 107.441 137.505 115.217 131.564 121.935C115.856 111.318 96.918 104.973 76.467 104.677C75.964 104.67 75.46 104.667 74.959 104.667C54.499 104.667 34.958 110.703 18.405 121.905C12.48 115.195 7.755 107.436 4.592 98.93C38.459 83.14 61.942 49.213 61.942 9.98599C61.942 7.02699 61.784 4.105 61.522 1.211C65.897 0.429999 70.395 0 74.998 0V0ZM115.655 11.088C116.275 35.924 129.819 57.652 149.921 69.986C149.964 71.01 150 72.035 150 73.068C150 76.888 149.705 80.638 149.136 84.301C121.504 70.294 102.551 41.95 102.551 9.313C102.551 7.703 102.608 6.10501 102.7 4.51601C107.255 6.29701 111.59 8.503 115.655 11.088V11.088ZM41.635 140C37.18 137.805 32.98 135.182 29.082 132.19C42.375 123.804 58.122 118.925 75.002 118.925C91.881 118.925 107.625 123.803 120.918 132.185C117.02 135.179 112.82 137.801 108.366 139.998C98.363 134.853 87.024 131.928 75.003 131.928C62.979 131.928 51.639 134.855 41.634 140H41.635ZM0.0789948 69.987C20.179 57.651 33.724 35.924 34.345 11.087C38.41 8.50301 42.745 6.297 47.3 4.517C47.392 6.105 47.449 7.702 47.449 9.312C47.449 41.95 28.495 70.294 0.863007 84.302C0.294007 80.639 0 76.887 0 73.069C0 72.035 0.0359947 71.009 0.0789948 69.987V69.987Z" fill="#ECECDA"/>
</svg>