<svg width="374" height="509" viewBox="0 0 374 509" fill="none" xmlns="http://www.w3.org/2000/svg">
<path d="M87.5264 206.651C91.9238 211.698 96.4688 216.746 101.136 221.779L110.357 196.445C112.624 190.217 119.51 187.006 125.738 189.273C131.966 191.54 135.177 198.426 132.91 204.654L119.658 241.063C145.541 267.133 173.894 292.344 201.081 314.721C206.198 318.933 206.932 326.496 202.72 331.612C198.509 336.729 190.946 337.463 185.829 333.252C160.975 312.794 134.986 289.866 110.612 265.916L50.825 430.18C48.5583 436.408 41.6722 439.619 35.4445 437.352C29.2168 435.085 26.0057 428.199 28.2724 421.971L91.9487 247.022C84.148 238.874 76.6078 230.654 69.4307 222.416C35.5656 183.545 8.28403 142.611 1.58858 106.022C-1.83863 87.2927 -0.00306702 68.9413 9.87342 52.7939C19.6769 36.7659 36.4422 24.4845 59.8119 15.8685C106.04 -1.17502 182.111 -5.34755 297.292 7.56155C303.878 8.29971 308.619 14.2373 307.881 20.8234C307.143 27.4096 301.205 32.1504 294.619 31.4122C180.049 18.5716 108.766 23.3991 68.114 38.3868C48.0436 45.7864 36.4872 55.2784 30.3473 65.3167C24.2804 75.2357 22.5509 87.2435 25.1966 101.702C30.647 131.487 54.0633 168.241 87.5264 206.651Z" fill="white"/>
<path d="M178.84 116.186C173.117 119.527 171.186 126.876 174.527 132.599C177.869 138.323 185.217 140.254 190.941 136.912L311.844 66.3258C317.567 62.9844 319.498 55.6358 316.157 49.9124C312.815 44.189 305.467 42.2581 299.743 45.5996L178.84 116.186Z" fill="white"/>
<path d="M64.4549 439.595C58.7153 442.909 56.7488 450.248 60.0626 455.987C63.3763 461.727 70.7153 463.693 76.4549 460.38L197.698 390.38C203.438 387.066 205.404 379.727 202.091 373.987C198.777 368.248 191.438 366.281 185.698 369.595L64.4549 439.595Z" fill="white"/>
<path d="M345.779 84.8744C348.046 78.6466 344.835 71.7605 338.607 69.4938C332.379 67.2271 325.493 70.4381 323.226 76.6659L262.843 242.569C238.614 218.795 212.809 196.04 188.125 175.722C183.008 171.51 175.445 172.244 171.233 177.361C167.022 182.478 167.755 190.041 172.872 194.253C199.886 216.487 228.051 241.52 253.8 267.413L241.142 302.192C238.875 308.42 242.086 315.306 248.314 317.573C254.541 319.839 261.427 316.628 263.694 310.401L272.331 286.671C277.169 291.878 281.877 297.101 286.427 302.323C319.89 340.733 343.307 377.487 348.757 407.272C351.403 421.73 349.673 433.738 343.606 443.657C337.466 453.695 325.91 463.187 305.84 470.587C265.188 485.575 193.905 490.402 79.3348 477.562C72.7486 476.823 66.8111 481.564 66.0729 488.15C65.3348 494.737 70.0755 500.674 76.6617 501.412C191.842 514.321 267.914 510.149 314.142 493.105C337.512 484.489 354.277 472.208 364.08 456.18C373.957 440.033 375.792 421.681 372.365 402.952C365.67 366.363 338.388 325.429 304.523 286.558C297.196 278.147 289.49 269.755 281.515 261.44L345.779 84.8744Z" fill="white"/>
<path d="M165.455 152.965C165.455 166.22 154.71 176.965 141.455 176.965C128.2 176.965 117.455 166.22 117.455 152.965C117.455 139.71 128.2 128.965 141.455 128.965C154.71 128.965 165.455 139.71 165.455 152.965Z" fill="white"/>
<path d="M27.4549 499.965C40.7097 499.965 51.4549 489.22 51.4549 475.965C51.4549 462.71 40.7097 451.965 27.4549 451.965C14.2 451.965 3.45486 462.71 3.45486 475.965C3.45486 489.22 14.2 499.965 27.4549 499.965Z" fill="white"/>
<path d="M370.455 31.9649C370.455 45.2198 359.71 55.9649 346.455 55.9649C333.2 55.9649 322.455 45.2198 322.455 31.9649C322.455 18.7101 333.2 7.96493 346.455 7.96493C359.71 7.96493 370.455 18.7101 370.455 31.9649Z" fill="white"/>
<path d="M233.455 375.965C246.71 375.965 257.455 365.22 257.455 351.965C257.455 338.71 246.71 327.965 233.455 327.965C220.2 327.965 209.455 338.71 209.455 351.965C209.455 365.22 220.2 375.965 233.455 375.965Z" fill="white"/>
</svg>
